<?xml version="1.0" encoding="utf-8"?>
<!-- Generator: Adobe Illustrator 17.0.2, SVG Export Plug-In . SVG Version: 6.00 Build 0)  -->
<!DOCTYPE svg PUBLIC "-//W3C//DTD SVG 1.1//EN" "http://www.w3.org/Graphics/SVG/1.1/DTD/svg11.dtd">
<svg version="1.1" id="Layer_1" xmlns="http://www.w3.org/2000/svg" xmlns:xlink="http://www.w3.org/1999/xlink" x="0px" y="0px"
	 width="512px" height="512px" viewBox="0 0 512 512" enable-background="new 0 0 512 512" xml:space="preserve">
<path fill="#4D4D4D" d="M170.931,1323.337h-4.634v-1.098c3.533-0.723,6.198-3.856,6.198-7.6c0-2.069-0.807-4.017-2.271-5.481
	l-0.355-0.355l-1.375,1.375c-1.024-0.887-2.357-1.427-3.818-1.427c-3.227,0-5.842,2.616-5.842,5.842c0,1.462,0.54,2.794,1.426,3.819
	l-1.357,1.356l0.355,0.355c1.464,1.465,3.412,2.272,5.484,2.272c0.186,0,0.368-0.015,0.551-0.028v0.969h-4.634
	c-0.278,0-0.502,0.225-0.502,0.502s0.225,0.502,0.502,0.502h10.272c0.278,0,0.502-0.225,0.502-0.502
	S171.208,1323.337,170.931,1323.337z M160.335,1319.756l0.641-0.641c1.007,0.826,2.295,1.322,3.7,1.322
	c3.227,0,5.843-2.616,5.843-5.845c0-1.403-0.496-2.691-1.321-3.698l0.659-0.659c1.057,1.226,1.634,2.771,1.634,4.404
	c0,3.723-3.027,6.752-6.749,6.752C163.105,1321.392,161.56,1320.814,160.335,1319.756z"/>
<path fill="#4D4D4D" d="M170.931,1323.337h-4.634v-1.098c3.533-0.723,6.198-3.856,6.198-7.6c0-2.069-0.807-4.017-2.271-5.481
	l-0.355-0.355l-1.375,1.375c-1.024-0.887-2.357-1.427-3.818-1.427c-3.227,0-5.842,2.616-5.842,5.842c0,1.462,0.54,2.794,1.426,3.819
	l-1.357,1.356l0.355,0.355c1.464,1.465,3.412,2.272,5.484,2.272c0.186,0,0.368-0.015,0.551-0.028v0.969h-4.634
	c-0.278,0-0.502,0.225-0.502,0.502s0.225,0.502,0.502,0.502h10.272c0.278,0,0.502-0.225,0.502-0.502
	S171.208,1323.337,170.931,1323.337z M160.335,1319.756l0.641-0.641c1.007,0.826,2.295,1.322,3.7,1.322
	c3.227,0,5.843-2.616,5.843-5.845c0-1.403-0.496-2.691-1.321-3.698l0.659-0.659c1.057,1.226,1.634,2.771,1.634,4.404
	c0,3.723-3.027,6.752-6.749,6.752C163.105,1321.392,161.56,1320.814,160.335,1319.756z"/>
<path fill="#4D4D4D" d="M80.758,190.409c0.173-40.339,15.851-78.143,44.125-106.476c28.174-28.159,65.892-43.794,106.216-43.966
	c4.491,0.029,8.796,0.921,13.231,1.324l1.021,1.699l0.216,19.492L236.08,78.29l-20.011,16.009l3.541,12.582
	c-0.057,15.835,0.605,26.231,2.116,31.211c1.454,4.866,6.449,13.791,14.972,26.748l-3.022,16.93l-36.726,3.023l2.275,35.789
	c-5.658,7.141-11.301,14.31-16.844,21.422c-6.68,8.695-11.849,16.239-15.433,22.487c-8.882,20.185-15.073,35.559-18.499,46.156
	l9.718-0.661c3.095-3.974,9.645-9.358,19.78-15.952c10.697-6.997,18.024-10.537,21.912-10.537l60.019,0.058l25.841-22.575
	l-4.031-23.581l-38.626-48.516l-1.9-13.014l9.617-9.128l1.411-15.577h17.723l2.907,7.947l6.335-1.497l13.014,13.562l1.352,3.685
	l5.729,5.729l-1.469-4.117l26.749,9.501l3.37-10.25l8.925,7.831l-0.201-6.939l11.46-0.259l3.456-12.784l5.642-4.952l-20.413-4.665
	l-8.61,2.015l-5.701-8.465l6.853-6.881h22.803l6.335-13.935l-17.708-20.241h-21.566l-10.999-16.642l25.568-8.81
	c1.152,1.094,2.533,1.871,3.628,2.995c28.389,28.418,44.024,66.166,44.053,106.273c-0.057,40.31-15.664,78.029-43.937,106.274
	c-28.304,28.331-66.108,43.994-106.39,44.11c-40.093,0-77.842-15.663-106.259-44.139C96.566,268.265,80.902,230.518,80.758,190.409z
	"/>
<path fill="#7C7C7C" d="M414.279,448.305H279.961V417.21c102.79-21.191,180.301-112.406,180.301-221.416
	c0-60.321-23.524-117.101-66.224-159.8l-10.193-10.193l-38.462,35.102L365.5,83.374l17.021-15.507
	c30.75,35.558,47.565,80.476,47.565,127.926c-0.001,108.029-87.847,195.934-195.834,195.934c-47.292,0-92.021-16.642-127.465-47.163
	l17.548-17.547l-21.841-20.831l-38.766,38.78l10.668,10.654c42.671,42.729,99.436,66.251,159.857,66.251
	c5.24,0,10.38-0.431,15.534-0.777v27.209h-134.32c-8.335,0-15.072,6.738-15.072,15.059c0,8.35,6.737,15.088,15.072,15.088h298.811
	c8.321,0,15.058-6.737,15.058-15.088C429.337,455.043,422.6,448.305,414.279,448.305z"/>
<circle fill="#16B9BC" cx="230.342" cy="190.808" r="160.037"/>
<g>
	<path fill="#B0D300" d="M334.082,174.77l9.491,8.328l-0.214-7.378l12.186-0.276l3.674-13.594l6-5.266l-21.707-4.96l-9.155,2.143
		l-6.062-9.001l7.287-7.318h24.247l6.736-14.818l-18.829-21.523h-22.931l-11.695-17.698l26.803-9.236
		c-26.86-25.243-62.435-41.315-101.734-43.21c2.34,0.295,4.672,0.641,7.04,0.856l1.086,1.806l0.229,20.727l-10.088,16.809
		l-21.279,17.023l3.766,13.379c-0.061,16.838,0.644,27.892,2.25,33.188c1.545,5.175,6.858,14.665,15.921,28.443l-3.213,18.003
		l-39.053,3.215l2.419,38.056c-6.016,7.593-12.017,15.216-17.911,22.778c-7.103,9.246-12.599,17.267-16.41,23.912
		c-9.445,21.463-16.028,37.812-19.671,49.079l10.334-0.703c3.291-4.226,10.256-9.951,21.033-16.962
		c11.374-7.44,19.166-11.204,23.3-11.204l63.82,0.062l27.479-24.005l-4.286-25.074l-41.072-51.59l-2.02-13.838l10.226-9.706
		l1.499-16.564h18.846l3.091,8.45l6.736-1.592l13.838,14.421l1.438,3.919l6.092,6.092l-1.562-4.378l28.444,10.103L334.082,174.77z"
		/>
	<path fill="#B0D300" d="M175.605,40.38c-0.321,0.116-0.639,0.238-0.959,0.356C174.965,40.617,175.285,40.498,175.605,40.38z"/>
</g>
</svg>
