<?xml version="1.0" encoding="UTF-8" standalone="no"?>
<svg xmlns:rdf="http://www.w3.org/1999/02/22-rdf-syntax-ns#" xmlns="http://www.w3.org/2000/svg" height="501px" width="486px" xmlns:cc="http://creativecommons.org/ns#" xmlns:xlink="http://www.w3.org/1999/xlink" xmlns:dc="http://purl.org/dc/elements/1.1/">
<title>Energy: nuclear power station</title>
<desc xmlns:ian_image_library="http://ian.umces.edu/imagelibrary/">
      <ian_image_library:title>Energy: nuclear power station</ian_image_library:title>
      <ian_image_library:descr>Illustration of a nuclear power station</ian_image_library:descr>
      <ian_image_library:scene>
		<ian_image_library:contains>symbol,vector,illustration,development,infrastructure,energy,nuclear,power,station</ian_image_library:contains>
        <ian_image_library:when>2005-02-17</ian_image_library:when> 
	  </ian_image_library:scene>
   </desc>
    <metadata
		id="metadata-iil-fb5ca6087f54bff4dd8f2328fe6784f3">
      <rdf:RDF>
      <cc:Work
         rdf:about="">
        <dc:format>image/svg+xml</dc:format>
        <dc:type
           rdf:resource="http://purl.org/dc/dcmitype/StillImage" />
        <cc:license
           rdf:resource="http://creativecommons.org/licenses/by-sa/3.0/" />
        <dc:title>Energy: nuclear power station</dc:title>
		<dc:date>2005-02-17</dc:date>
        <dc:creator>
			<cc:Agent>
				<dc:title>Tracey Saxby</dc:title>
			</cc:Agent>	
		</dc:creator>   
		<dc:rights>
          <cc:Agent>
            <dc:title>Tracey Saxby, Integration and Application Network</dc:title>
          </cc:Agent>
        </dc:rights>
        <dc:publisher>
          <cc:Agent>
            <dc:title>Integration and Application Network</dc:title>
          </cc:Agent>
        </dc:publisher>
		<dc:identifier>http://ian.umces.edu/imagelibrary/displayimage-6003.html</dc:identifier>
        <dc:source>http://ian.umces.edu/imagelibrary/displayimage-6003.html</dc:source>
        <dc:language>en-US</dc:language>
        <dc:subject>
          <rdf:Bag>
            <rdf:li>symbol,vector,illustration,development,infrastructure,energy,nuclear,power,station</rdf:li>
          </rdf:Bag>
        </dc:subject>
        <dc:coverage></dc:coverage>
        <dc:description>Illustration of a nuclear power station</dc:description>
        <dc:contributor>
          <cc:Agent>
            <dc:title></dc:title>
          </cc:Agent>
        </dc:contributor>
      </cc:Work>
      <cc:License
         rdf:about="http://creativecommons.org/licenses/by-sa/3.0/">
        <cc:permits
           rdf:resource="http://creativecommons.org/ns#Reproduction" />
        <cc:permits
           rdf:resource="http://creativecommons.org/ns#Distribution" />
        <cc:requires
           rdf:resource="http://creativecommons.org/ns#Notice" />
        <cc:requires
           rdf:resource="http://creativecommons.org/ns#Attribution" />
        <cc:permits
           rdf:resource="http://creativecommons.org/ns#DerivativeWorks" />
        <cc:requires
           rdf:resource="http://creativecommons.org/ns#ShareAlike" />
      </cc:License>
    </rdf:RDF>
  </metadata>
	
<defs>
</defs>
<linearGradient id="ian_symbols_a6601797cda03884b103f22ccfd0989e" gradientUnits="userSpaceOnUse" x1="20.623" y1="431.229" x2="485.34" y2="306.7085">
	<stop  offset="0.0056" style="stop-color:#E9E7E2"/>
	<stop  offset="1" style="stop-color:#B6B29E"/>
</linearGradient>
<path fill="url(#ian_symbols_a6601797cda03884b103f22ccfd0989e)" stroke="#525A44" stroke-width="0.2503" d="M38.813,303.929c0,0-13.73-1.257-22.463,4.984
	S1.375,332.634,0.126,353.842c7.491,43.688,64.895,61.153,91.102,64.896c58.64,8.423,104.832-9.983,104.832-9.983l12.482,7.483
	l-6.241,17.48l48.671,11.226c0,0,19.965,34.947,68.636,38.688c29.955-1.243,56.162-3.741,56.162-3.741l29.947,19.965l67.394-36.189
	l-42.429-83.617c0,0-104.833-59.896-87.359-58.654c17.466,1.243,54.905-34.946,63.645-42.43C415.7,271.482,418.2,259,418.2,259
	l3.741,2.499l44.929-23.721l-44.929-27.449l-11.232,7.484c0,0-17.467-23.708-36.189-28.706
	c-18.723-4.984-164.735,16.224-187.2,26.207C164.862,225.296,38.813,303.929,38.813,303.929z"/>
<linearGradient id="ian_symbols_a8d276a576023e346d26dbeeac7e7166" gradientUnits="userSpaceOnUse" x1="243.0156" y1="49.6396" x2="352.7369" y2="20.2399">
	<stop  offset="0.0787" style="stop-color:#E9E7E2"/>
	<stop  offset="1" style="stop-color:#B6B29E"/>
</linearGradient>
<path fill="url(#ian_symbols_a8d276a576023e346d26dbeeac7e7166)" stroke="#525A44" stroke-width="0.2503" stroke-linejoin="round" d="M355.921,34.933
	c0,19.234-25.985,34.822-58.046,34.822c-32.054,0-58.046-15.588-58.046-34.822c0-19.219,25.992-34.808,58.046-34.808
	C329.936,0.125,355.921,15.714,355.921,34.933z"/>
<linearGradient id="ian_symbols_e94fae48192d916439140824b251f48f" gradientUnits="userSpaceOnUse" x1="267.6123" y1="65.1724" x2="328.5513" y2="4.2333">
	<stop  offset="0.0899" style="stop-color:#888E7E"/>
	<stop  offset="0.7303" style="stop-color:#B6B29E"/>
</linearGradient>
<path fill="url(#ian_symbols_e94fae48192d916439140824b251f48f)" stroke="#525A44" stroke-width="0.2503" d="M351.344,34.698c0,16.349-23.852,29.59-53.262,29.59
	c-29.416,0-53.262-13.241-53.262-29.59c0-16.333,23.846-29.588,53.262-29.588C327.492,5.11,351.344,18.365,351.344,34.698z"/>
<linearGradient id="ian_symbols_bfb8aa3f20299a14b975f9ea24550848" gradientUnits="userSpaceOnUse" x1="173.9189" y1="197.2095" x2="384.2979" y2="140.8386">
	<stop  offset="0.0787" style="stop-color:#E9E7E2"/>
	<stop  offset="0.5843" style="stop-color:#B6B29E"/>
	<stop  offset="1" style="stop-color:#9F9F91"/>
</linearGradient>
<path fill="url(#ian_symbols_bfb8aa3f20299a14b975f9ea24550848)" stroke="#525A44" stroke-width="0.2503" stroke-linejoin="round" d="M355.921,34.933
	c0,19.234-25.985,34.822-58.046,34.822c-32.054,0-58.046-15.588-58.046-34.822c0,0,1.346,56.667-1.381,66.689
	c-2.734,10.011-5.226,23.404-7.049,30.681c-1.823,7.291-17.535,41.243-22.996,53.076s-15.485,28.222-18.212,38.233
	c-2.727,10.024-3.169,18.239-3.169,18.239c0,32.793,50.031,59.386,111.75,59.386c61.712,0,111.75-26.593,111.75-59.386
	c0,0-5.467-11.86-9.106-20.959c-3.645-9.113-31.197-71.26-33.924-81.27c-2.728-10.011-6.814-23.376-9.776-35.236
	C354.748,92.51,355.921,34.933,355.921,34.933z"/>
<linearGradient id="ian_symbols_2f87105c8662cd94b18b414bd7c314c0" gradientUnits="userSpaceOnUse" x1="279.5781" y1="288.5132" x2="293.0516" y2="284.903">
	<stop  offset="0.1685" style="stop-color:#747A68"/>
	<stop  offset="0.9045" style="stop-color:#888E7E"/>
</linearGradient>
<path fill="url(#ian_symbols_2f87105c8662cd94b18b414bd7c314c0)" d="M283.205,272.255l-0.38,28.374c2.34,0.18,4.708,0.304,7.09,0.4l-0.145-28.374
	C287.561,272.544,285.365,272.42,283.205,272.255z"/>
<linearGradient id="ian_symbols_db882f9c66f20dc429bbbf91a83d5fa0" gradientUnits="userSpaceOnUse" x1="262.4512" y1="287.3237" x2="278.7729" y2="282.9503">
	<stop  offset="0.1685" style="stop-color:#747A68"/>
	<stop  offset="0.9045" style="stop-color:#888E7E"/>
</linearGradient>
<path fill="url(#ian_symbols_db882f9c66f20dc429bbbf91a83d5fa0)" d="M268.307,270.432l-2.845,28.126c2.638,0.428,5.316,0.801,8.029,1.132l2.209-28.208
	C273.208,271.178,270.729,270.833,268.307,270.432z"/>
<linearGradient id="ian_symbols_a21da5579822b0e42de33ede038dc1f0" gradientUnits="userSpaceOnUse" x1="246.457" y1="284.6626" x2="263.9017" y2="279.9883">
	<stop  offset="0.1685" style="stop-color:#747A68"/>
	<stop  offset="0.9045" style="stop-color:#888E7E"/>
</linearGradient>
<path fill="url(#ian_symbols_a21da5579822b0e42de33ede038dc1f0)" d="M253.554,267.271l-4.302,27.821c2.789,0.731,5.647,1.395,8.568,2.016l3.147-28.07
	C258.441,268.5,255.97,267.919,253.554,267.271z"/>
<linearGradient id="ian_symbols_251aaaa8d6b27e64fde1466df058dd52" gradientUnits="userSpaceOnUse" x1="232.1904" y1="280.48" x2="250.0506" y2="275.6944">
	<stop  offset="0.1685" style="stop-color:#747A68"/>
	<stop  offset="0.9045" style="stop-color:#888E7E"/>
</linearGradient>
<path fill="url(#ian_symbols_251aaaa8d6b27e64fde1466df058dd52)" d="M239.933,262.935l-5.04,27.629c2.479,0.925,5.04,1.795,7.663,2.609l4.757-27.698
	C244.778,264.689,242.321,263.846,239.933,262.935z"/>
<linearGradient id="ian_symbols_c3ff6054ffce4334451531581c410add" gradientUnits="userSpaceOnUse" x1="218.3711" y1="275.4077" x2="236.9005" y2="270.4427">
	<stop  offset="0.0787" style="stop-color:#525A44"/>
	<stop  offset="0.9045" style="stop-color:#888E7E"/>
</linearGradient>
<path fill="url(#ian_symbols_c3ff6054ffce4334451531581c410add)" d="M228.41,257.881l-7.643,26.469c2.258,1.174,4.591,2.306,7.035,3.369l6.476-27.063
	C232.249,259.773,230.302,258.848,228.41,257.881z"/>
<linearGradient id="ian_symbols_ac086bf8179c0d84b58a8d755145748d" gradientUnits="userSpaceOnUse" x1="207.1528" y1="269.1489" x2="226.278" y2="264.0244">
	<stop  offset="0.0787" style="stop-color:#525A44"/>
	<stop  offset="0.9045" style="stop-color:#888E7E"/>
</linearGradient>
<path fill="url(#ian_symbols_ac086bf8179c0d84b58a8d755145748d)" d="M217.84,251.585l-8.45,25.916c1.988,1.395,4.094,2.748,6.303,4.06l8.298-26.068
	C221.824,254.237,219.773,252.938,217.84,251.585z"/>
<linearGradient id="ian_symbols_179fe299d6bb02046d80083c19594152" gradientUnits="userSpaceOnUse" x1="198.1055" y1="262.4526" x2="216.6599" y2="257.481">
	<stop  offset="0.0787" style="stop-color:#525A44"/>
	<stop  offset="0.9045" style="stop-color:#888E7E"/>
</linearGradient>
<path fill="url(#ian_symbols_179fe299d6bb02046d80083c19594152)" d="M209.688,244.93l-9.651,24.729c1.767,1.768,3.687,3.494,5.771,5.15l8.588-25.778
	C212.718,247.706,211.151,246.338,209.688,244.93z"/>
<linearGradient id="ian_symbols_aae75b12f8696f04017f51a8ac404bc2" gradientUnits="userSpaceOnUse" x1="191.1348" y1="254.2983" x2="208.9563" y2="249.5231">
	<stop  offset="0.0787" style="stop-color:#525A44"/>
	<stop  offset="0.9045" style="stop-color:#888E7E"/>
</linearGradient>
<path fill="url(#ian_symbols_aae75b12f8696f04017f51a8ac404bc2)" d="M202.956,236.908l-10.065,23.942c1.312,2.044,2.81,4.046,4.508,5.992l9.568-24.743
	C205.462,240.415,204.13,238.675,202.956,236.908z"/>
<linearGradient id="ian_symbols_1e511aa800c211448dd128c3aba588ea" gradientUnits="userSpaceOnUse" x1="295.3945" y1="288.7603" x2="308.4647" y2="285.2581">
	<stop  offset="0.1685" style="stop-color:#747A68"/>
	<stop  offset="0.9045" style="stop-color:#888E7E"/>
</linearGradient>
<path fill="url(#ian_symbols_1e511aa800c211448dd128c3aba588ea)" d="M298.469,272.863c-0.014,0-0.027,0-0.034,0l0.304,28.374c0.007,0,0.021,0,0.034,0
	c2.292,0,4.557-0.042,6.814-0.124l-0.477-28.375C302.908,272.807,300.698,272.863,298.469,272.863z"/>
<linearGradient id="ian_symbols_446df1f6202a4bc4d5f359e5dec6b657" gradientUnits="userSpaceOnUse" x1="312.3877" y1="287.5913" x2="323.8609" y2="284.5171">
	<stop  offset="0.1685" style="stop-color:#747A68"/>
	<stop  offset="0.9045" style="stop-color:#888E7E"/>
</linearGradient>
<path fill="url(#ian_symbols_446df1f6202a4bc4d5f359e5dec6b657)" d="M313.947,272.241l1.912,28.306c2.078-0.166,4.135-0.373,6.172-0.607l-1.637-28.36
	C318.269,271.827,316.121,272.062,313.947,272.241z"/>
<linearGradient id="ian_symbols_95083ee8649780f4d1d5b9395ecbc57f" gradientUnits="userSpaceOnUse" x1="328.0488" y1="285.3521" x2="338.1434" y2="282.6472">
	<stop  offset="0.2022" style="stop-color:#838776"/>
	<stop  offset="0.9045" style="stop-color:#9F9F91"/>
</linearGradient>
<path fill="url(#ian_symbols_95083ee8649780f4d1d5b9395ecbc57f)" d="M328.673,270.418l2.934,28.209c2.051-0.332,4.08-0.705,6.082-1.091l-3.113-28.209
	C332.628,269.714,330.668,270.087,328.673,270.418z"/>
<linearGradient id="ian_symbols_d8f6ff8fac1fe734b98e26a0c1afa76c" gradientUnits="userSpaceOnUse" x1="339.9131" y1="282.7183" x2="348.049" y2="280.5383">
	<stop  offset="0.1685" style="stop-color:#909383"/>
	<stop  offset="0.9045" style="stop-color:#9F9F91"/>
</linearGradient>
<path fill="url(#ian_symbols_d8f6ff8fac1fe734b98e26a0c1afa76c)" d="M338.635,268.444l4.908,27.822c1.864-0.442,3.7-0.897,5.516-1.381l-4.639-27.891
	C342.521,267.505,340.595,268.002,338.635,268.444z"/>
<linearGradient id="ian_symbols_5b4d323e631fdfa46d5d55f1944c0818" gradientUnits="userSpaceOnUse" x1="350.21" y1="279.7886" x2="357.1247" y2="277.9358">
	<stop  offset="0.2022" style="stop-color:#838776"/>
	<stop  offset="0.9045" style="stop-color:#9F9F91"/>
</linearGradient>
<path fill="url(#ian_symbols_5b4d323e631fdfa46d5d55f1944c0818)" d="M348.106,265.945l5.778,27.56c1.981-0.594,3.928-1.229,5.834-1.892l-6.27-27.394
	C351.696,264.827,349.929,265.393,348.106,265.945z"/>
<linearGradient id="ian_symbols_b97c8b17c1716a3461a9d4a446fa3a15" gradientUnits="userSpaceOnUse" x1="380.9434" y1="264.1646" x2="390.7568" y2="261.535">
	<stop  offset="0.0843" style="stop-color:#7E8473"/>
	<stop  offset="0.8427" style="stop-color:#969785"/>
</linearGradient>
<path fill="url(#ian_symbols_b97c8b17c1716a3461a9d4a446fa3a15)" d="M377.806,252.456l11.363,24.287c1.638-1.201,3.204-2.431,4.675-3.687l-11.171-24.136
	C381.134,250.136,379.511,251.309,377.806,252.456z"/>
<linearGradient id="ian_symbols_2442436093c64384d10953ca9270e2f7" gradientUnits="userSpaceOnUse" x1="371.666" y1="270.604" x2="380.2145" y2="268.3134">
	<stop  offset="0.2022" style="stop-color:#838776"/>
	<stop  offset="0.9045" style="stop-color:#9F9F91"/>
</linearGradient>
<path fill="url(#ian_symbols_2442436093c64384d10953ca9270e2f7)" d="M368.286,257.992l10.176,25.475c1.746-0.938,3.417-1.919,5.032-2.913l-10.853-24.895
	C371.233,256.459,369.784,257.247,368.286,257.992z"/>
<linearGradient id="ian_symbols_a16ae3a172979f149d1daf89e089f182" gradientUnits="userSpaceOnUse" x1="361.6611" y1="275.6831" x2="367.8817" y2="274.0163">
	<stop  offset="0.2022" style="stop-color:#838776"/>
	<stop  offset="0.9045" style="stop-color:#9F9F91"/>
</linearGradient>
<path fill="url(#ian_symbols_a16ae3a172979f149d1daf89e089f182)" d="M358.131,262.507l7.725,26.841c1.892-0.759,3.715-1.546,5.502-2.36l-8.449-26.428
	C361.361,261.237,359.76,261.885,358.131,262.507z"/>
<linearGradient id="ian_symbols_81cc4663f3fa3e94f5dd879036a3c0a1" gradientUnits="userSpaceOnUse" x1="390.917" y1="255.5552" x2="399.9716" y2="253.129">
	<stop  offset="0.1685" style="stop-color:#747A68"/>
	<stop  offset="0.9045" style="stop-color:#888E7E"/>
</linearGradient>
<path fill="url(#ian_symbols_81cc4663f3fa3e94f5dd879036a3c0a1)" d="M391.006,240.871c-0.966,1.16-1.995,2.292-3.113,3.397l11.184,23.762
	c1.353-1.449,2.574-2.94,3.693-4.46L391.006,240.871z"/>
<linearGradient id="ian_symbols_4de12e010ebe36f43dbdbd9313207c29" gradientUnits="userSpaceOnUse" x1="396.0605" y1="246.9258" x2="406.0019" y2="244.262">
	<stop  offset="0.0787" style="stop-color:#525A44"/>
	<stop  offset="0.9045" style="stop-color:#888E7E"/>
</linearGradient>
<path fill="url(#ian_symbols_4de12e010ebe36f43dbdbd9313207c29)" d="M396.633,232.241c-0.864,1.809-1.885,3.59-3.079,5.33l12.295,21.264
	c1.022-1.809,1.885-3.659,2.574-5.537L396.633,232.241z"/>
<linearGradient id="ian_symbols_d47a71a8e86e86947124a67a42ae4d10" gradientUnits="userSpaceOnUse" x1="366.4756" y1="366.3784" x2="462.0845" y2="270.7695">
	<stop  offset="0.0056" style="stop-color:#E4E0E3"/>
	<stop  offset="0.4775" style="stop-color:#E4E0E3"/>
	<stop  offset="1" style="stop-color:#BFBBB4"/>
</linearGradient>
<polygon fill="url(#ian_symbols_d47a71a8e86e86947124a67a42ae4d10)" stroke="#28666E" stroke-width="0.2503" stroke-linecap="round" stroke-linejoin="round" points="
	484.668,293.353 408.955,249.583 353.36,280.333 353.36,353.263 431.434,400.581 431.434,328.837 "/>
<linearGradient id="ian_symbols_b93f9902274e6b34a97917ae36e53233" gradientUnits="userSpaceOnUse" x1="484.668" y1="346.9663" x2="431.4336" y2="346.9663">
	<stop  offset="0.0056" style="stop-color:#AAA89B"/>
	<stop  offset="1" style="stop-color:#BFBBB4"/>
</linearGradient>
<polygon fill="url(#ian_symbols_b93f9902274e6b34a97917ae36e53233)" stroke="#28666E" stroke-width="0.2503" stroke-linejoin="round" points="431.434,400.581 
	484.668,366.284 484.668,293.353 431.434,328.837 "/>
<polygon fill="#00677A" stroke="#28666E" stroke-width="0.2503" stroke-linejoin="round" points="366.78,281.381 407.388,257.674 
	470.378,294.084 430.668,319.642 "/>
<line fill="none" stroke="#28666E" stroke-width="0.2503" stroke-linejoin="round" x1="353.36" y1="280.333" x2="431.434" y2="328.837"/>
<linearGradient id="ian_symbols_fb891aea9ca646e42de63de2fa48808d" gradientUnits="userSpaceOnUse" x1="400.7314" y1="237.0107" x2="408.1792" y2="235.0151">
	<stop  offset="0.0787" style="stop-color:#525A44"/>
	<stop  offset="0.9045" style="stop-color:#888E7E"/>
</linearGradient>
<path fill="url(#ian_symbols_fb891aea9ca646e42de63de2fa48808d)" d="M399.469,222.521c-0.213,1.836-0.606,3.645-1.166,5.426l11.267,21.525
	c0.477-1.974,0.773-3.977,0.87-6.02L399.469,222.521z"/>
<linearGradient id="ian_symbols_4c65c08661db73b425e21befdd57346d" gradientUnits="userSpaceOnUse" x1="186.7476" y1="245.0366" x2="203.0565" y2="240.6666">
	<stop  offset="0.0787" style="stop-color:#525A44"/>
	<stop  offset="0.9045" style="stop-color:#888E7E"/>
</linearGradient>
<path fill="url(#ian_symbols_4c65c08661db73b425e21befdd57346d)" d="M199.063,229.231l-10.853,21.263c0.566,2.058,1.319,4.073,2.265,6.048l10.846-22.354
	C200.43,232.572,199.663,230.916,199.063,229.231z"/>
<linearGradient id="ian_symbols_694150c0f1b307d405c1edebb64c1b6f" gradientUnits="userSpaceOnUse" x1="184.6675" y1="235.4048" x2="199.8841" y2="231.3275">
	<stop  offset="0.0787" style="stop-color:#525A44"/>
	<stop  offset="0.9045" style="stop-color:#888E7E"/>
</linearGradient>
<path fill="url(#ian_symbols_694150c0f1b307d405c1edebb64c1b6f)" d="M197.392,222.024l-9.989,15.906c-0.297,2.444-0.38,3.921-0.38,3.921
	c0,0.953,0.055,1.905,0.138,2.858l10.777-19.358C197.703,224.26,197.502,223.142,197.392,222.024z"/>
<linearGradient id="ian_symbols_2b157d56d070fc5415ef7610a9aa4000" gradientUnits="userSpaceOnUse" x1="186.1304" y1="222.6621" x2="200.6933" y2="218.76">
	<stop  offset="0.0787" style="stop-color:#525A44"/>
	<stop  offset="0.9045" style="stop-color:#888E7E"/>
</linearGradient>
<path fill="url(#ian_symbols_2b157d56d070fc5415ef7610a9aa4000)" d="M198.386,210.149l-8.52,14.719c-0.587,2.278-1.056,4.432-1.429,6.407l9.203-16.307
	C197.813,213.615,198.048,211.986,198.386,210.149z"/>
<linearGradient id="ian_symbols_4312d727cd3386c4d1b1b08970136122" gradientUnits="userSpaceOnUse" x1="68.2969" y1="156.9653" x2="178.0243" y2="127.564">
	<stop  offset="0.0787" style="stop-color:#E9E7E2"/>
	<stop  offset="1" style="stop-color:#B6B29E"/>
</linearGradient>
<path fill="url(#ian_symbols_4312d727cd3386c4d1b1b08970136122)" stroke="#525A44" stroke-width="0.2503" stroke-linejoin="round" d="M181.209,142.259
	c0,19.233-25.999,34.822-58.053,34.822S65.11,161.492,65.11,142.259c0-19.22,25.993-34.808,58.046-34.808
	S181.209,123.039,181.209,142.259z"/>
<linearGradient id="ian_symbols_530a19def46dea1449397efccd7f0c10" gradientUnits="userSpaceOnUse" x1="92.8901" y1="172.4985" x2="153.833" y2="111.5557">
	<stop  offset="0.0899" style="stop-color:#888E7E"/>
	<stop  offset="0.7303" style="stop-color:#B6B29E"/>
</linearGradient>
<path fill="url(#ian_symbols_530a19def46dea1449397efccd7f0c10)" stroke="#525A44" stroke-width="0.2503" d="M176.625,142.024c0,16.348-23.845,29.589-53.262,29.589
	c-29.416,0-53.27-13.241-53.27-29.589c0-16.334,23.854-29.589,53.27-29.589C152.78,112.435,176.625,125.689,176.625,142.024z"/>
<linearGradient id="ian_symbols_2e321b512567159459b7c32400975a5c" gradientUnits="userSpaceOnUse" x1="-0.7993" y1="304.5356" x2="209.5862" y2="248.163">
	<stop  offset="0.0787" style="stop-color:#E9E7E2"/>
	<stop  offset="0.5843" style="stop-color:#B6B29E"/>
	<stop  offset="1" style="stop-color:#9F9F91"/>
</linearGradient>
<path fill="url(#ian_symbols_2e321b512567159459b7c32400975a5c)" stroke="#525A44" stroke-width="0.2503" stroke-linejoin="round" d="M181.209,142.259
	c0,19.233-25.999,34.822-58.053,34.822S65.11,161.492,65.11,142.259c0,0,1.353,56.665-1.38,66.689
	c-2.734,10.01-5.227,23.403-7.05,30.68c-1.822,7.291-17.535,41.243-22.995,53.076c-5.462,11.833-15.479,28.223-18.205,38.246
	c-2.734,10.011-3.177,18.226-3.177,18.226c0,32.793,50.039,59.386,111.751,59.386c61.719,0,111.75-26.593,111.75-59.386
	c0,0-5.461-11.86-9.106-20.959c-3.639-9.113-31.191-71.26-33.925-81.271c-2.727-10.01-6.807-23.375-9.776-35.236
	C180.029,199.835,181.209,142.259,181.209,142.259z"/>
<linearGradient id="ian_symbols_84b2fb68461c13b4bd05145b4c8d0cba" gradientUnits="userSpaceOnUse" x1="104.855" y1="395.8462" x2="118.335" y2="392.2342">
	<stop  offset="0.1685" style="stop-color:#747A68"/>
	<stop  offset="0.9045" style="stop-color:#888E7E"/>
</linearGradient>
<path fill="url(#ian_symbols_84b2fb68461c13b4bd05145b4c8d0cba)" d="M108.486,379.58l-0.387,28.375c2.347,0.18,4.708,0.303,7.097,0.414l-0.145-28.389
	C112.849,379.87,110.654,379.746,108.486,379.58z"/>
<linearGradient id="ian_symbols_4db658e2bff77c24899ee9c8347162e0" gradientUnits="userSpaceOnUse" x1="87.7334" y1="394.6499" x2="104.0617" y2="390.2747">
	<stop  offset="0.1685" style="stop-color:#747A68"/>
	<stop  offset="0.9045" style="stop-color:#888E7E"/>
</linearGradient>
<path fill="url(#ian_symbols_4db658e2bff77c24899ee9c8347162e0)" d="M93.588,377.757l-2.845,28.126c2.637,0.428,5.323,0.8,8.037,1.132l2.208-28.209
	C98.489,378.502,96.012,378.158,93.588,377.757z"/>
<linearGradient id="ian_symbols_2c23ab30be056fa4ede8e302e683c771" gradientUnits="userSpaceOnUse" x1="71.7402" y1="391.9937" x2="89.1844" y2="387.3195">
	<stop  offset="0.1685" style="stop-color:#747A68"/>
	<stop  offset="0.9045" style="stop-color:#888E7E"/>
</linearGradient>
<path fill="url(#ian_symbols_2c23ab30be056fa4ede8e302e683c771)" d="M78.835,374.609l-4.301,27.809c2.79,0.731,5.654,1.408,8.568,2.015l3.147-28.069
	C83.729,375.824,81.251,375.244,78.835,374.609z"/>
<linearGradient id="ian_symbols_3ade19620b94bca47d2c06b04f0092eb" gradientUnits="userSpaceOnUse" x1="57.4746" y1="387.812" x2="75.3339" y2="383.0266">
	<stop  offset="0.1685" style="stop-color:#747A68"/>
	<stop  offset="0.9045" style="stop-color:#888E7E"/>
</linearGradient>
<path fill="url(#ian_symbols_3ade19620b94bca47d2c06b04f0092eb)" d="M65.213,370.274l-5.039,27.613c2.486,0.927,5.039,1.796,7.67,2.61l4.749-27.697
	C70.053,372.013,67.603,371.171,65.213,370.274z"/>
<linearGradient id="ian_symbols_47aac7c24546e1f40d4ac11c9a19650e" gradientUnits="userSpaceOnUse" x1="43.6538" y1="382.7349" x2="62.1823" y2="377.7702">
	<stop  offset="0.0787" style="stop-color:#525A44"/>
	<stop  offset="0.9045" style="stop-color:#888E7E"/>
</linearGradient>
<path fill="url(#ian_symbols_47aac7c24546e1f40d4ac11c9a19650e)" d="M53.699,365.207l-7.649,26.469c2.256,1.173,4.591,2.306,7.034,3.369l6.476-27.063
	C57.53,367.098,55.591,366.172,53.699,365.207z"/>
<linearGradient id="ian_symbols_751f1b30dfe5b96455c264b490518915" gradientUnits="userSpaceOnUse" x1="32.4404" y1="376.4722" x2="51.559" y2="371.3494">
	<stop  offset="0.0787" style="stop-color:#525A44"/>
	<stop  offset="0.9045" style="stop-color:#888E7E"/>
</linearGradient>
<path fill="url(#ian_symbols_751f1b30dfe5b96455c264b490518915)" d="M43.122,358.91l-8.442,25.917c1.988,1.395,4.086,2.747,6.296,4.06l8.298-26.068
	C47.106,361.575,45.055,360.263,43.122,358.91z"/>
<linearGradient id="ian_symbols_91f193e406b765e4f93fe5113bbb805f" gradientUnits="userSpaceOnUse" x1="23.3877" y1="369.7788" x2="41.9417" y2="364.8073">
	<stop  offset="0.0787" style="stop-color:#525A44"/>
	<stop  offset="0.9045" style="stop-color:#888E7E"/>
</linearGradient>
<path fill="url(#ian_symbols_91f193e406b765e4f93fe5113bbb805f)" d="M34.977,352.255l-9.658,24.729c1.767,1.768,3.693,3.493,5.771,5.15l8.587-25.778
	C37.999,355.03,36.433,353.664,34.977,352.255z"/>
<linearGradient id="ian_symbols_49889f0bb97d5244bd98faedb8f9bff9" gradientUnits="userSpaceOnUse" x1="16.4238" y1="361.6216" x2="34.2383" y2="356.8482">
	<stop  offset="0.0787" style="stop-color:#525A44"/>
	<stop  offset="0.9045" style="stop-color:#888E7E"/>
</linearGradient>
<path fill="url(#ian_symbols_49889f0bb97d5244bd98faedb8f9bff9)" d="M28.231,344.233L18.18,368.174c1.305,2.044,2.809,4.046,4.507,5.993l9.562-24.743
	C30.75,347.74,29.404,346,28.231,344.233z"/>
<linearGradient id="ian_symbols_0dc4a8d8c4639244396505c222eda32b" gradientUnits="userSpaceOnUse" x1="120.6782" y1="396.0903" x2="133.7479" y2="392.5883">
	<stop  offset="0.1685" style="stop-color:#747A68"/>
	<stop  offset="0.9045" style="stop-color:#888E7E"/>
</linearGradient>
<path fill="url(#ian_symbols_0dc4a8d8c4639244396505c222eda32b)" d="M123.75,380.187c-0.014,0-0.021,0-0.042,0l0.311,28.374c0.014,0,0.021,0,0.035,0
	c2.285,0,4.563-0.041,6.821-0.11l-0.483-28.388C128.189,380.132,125.98,380.187,123.75,380.187z"/>
<linearGradient id="ian_symbols_64bb10295fb004241107b030983aac15" gradientUnits="userSpaceOnUse" x1="137.6753" y1="394.9136" x2="149.1428" y2="391.8409">
	<stop  offset="0.1685" style="stop-color:#747A68"/>
	<stop  offset="0.9045" style="stop-color:#888E7E"/>
</linearGradient>
<path fill="url(#ian_symbols_64bb10295fb004241107b030983aac15)" d="M139.229,379.566l1.919,28.305c2.071-0.165,4.128-0.373,6.165-0.607l-1.636-28.36
	C143.55,379.152,141.403,379.386,139.229,379.566z"/>
<linearGradient id="ian_symbols_03058f94b5e1b48499558ecbf08306fd" gradientUnits="userSpaceOnUse" x1="153.3325" y1="392.6841" x2="163.4271" y2="389.9792">
	<stop  offset="0.2022" style="stop-color:#838776"/>
	<stop  offset="0.9045" style="stop-color:#9F9F91"/>
</linearGradient>
<path fill="url(#ian_symbols_03058f94b5e1b48499558ecbf08306fd)" d="M153.954,377.757l2.934,28.195c2.05-0.333,4.08-0.704,6.082-1.092l-3.114-28.208
	C157.91,377.04,155.949,377.412,153.954,377.757z"/>
<linearGradient id="ian_symbols_59af991a0838736465ddf3d809ca8222" gradientUnits="userSpaceOnUse" x1="165.1963" y1="390.0493" x2="173.3321" y2="387.8693">
	<stop  offset="0.1685" style="stop-color:#909383"/>
	<stop  offset="0.9045" style="stop-color:#9F9F91"/>
</linearGradient>
<path fill="url(#ian_symbols_59af991a0838736465ddf3d809ca8222)" d="M163.916,375.783l4.909,27.809c1.871-0.429,3.707-0.898,5.516-1.382l-4.639-27.891
	C167.803,374.83,165.876,375.327,163.916,375.783z"/>
<linearGradient id="ian_symbols_a7fc38653a8fb1d4d1c8cb1f4f026b46" gradientUnits="userSpaceOnUse" x1="175.4902" y1="387.1138" x2="182.413" y2="385.2588">
	<stop  offset="0.2022" style="stop-color:#838776"/>
	<stop  offset="0.9045" style="stop-color:#9F9F91"/>
</linearGradient>
<path fill="url(#ian_symbols_a7fc38653a8fb1d4d1c8cb1f4f026b46)" d="M173.388,373.27l5.778,27.56c1.975-0.594,3.928-1.229,5.841-1.892l-6.269-27.395
	C176.984,372.151,175.204,372.717,173.388,373.27z"/>
<linearGradient id="ian_symbols_9bcf02e0b347288461ce6bbbc9fd159a" gradientUnits="userSpaceOnUse" x1="206.2246" y1="371.4888" x2="216.031" y2="368.8611">
	<stop  offset="0.0843" style="stop-color:#7E8473"/>
	<stop  offset="0.8427" style="stop-color:#969785"/>
</linearGradient>
<path fill="url(#ian_symbols_9bcf02e0b347288461ce6bbbc9fd159a)" d="M203.087,359.78l11.364,24.287c1.643-1.188,3.203-2.416,4.667-3.687l-11.17-24.135
	C206.422,357.46,204.792,358.634,203.087,359.78z"/>
<linearGradient id="ian_symbols_3fa61082e6933bb4251b7444dd67c4f6" gradientUnits="userSpaceOnUse" x1="196.9531" y1="377.9272" x2="205.496" y2="375.6382">
	<stop  offset="0.2022" style="stop-color:#838776"/>
	<stop  offset="0.9045" style="stop-color:#9F9F91"/>
</linearGradient>
<path fill="url(#ian_symbols_3fa61082e6933bb4251b7444dd67c4f6)" d="M193.574,365.317l10.176,25.475c1.74-0.939,3.411-1.92,5.026-2.914l-10.853-24.895
	C196.522,363.784,195.065,364.571,193.574,365.317z"/>
<linearGradient id="ian_symbols_6cac9c3ed1aeedd499d78187de2cd7cf" gradientUnits="userSpaceOnUse" x1="186.9551" y1="383.0044" x2="193.1699" y2="381.3391">
	<stop  offset="0.2022" style="stop-color:#838776"/>
	<stop  offset="0.9045" style="stop-color:#9F9F91"/>
</linearGradient>
<path fill="url(#ian_symbols_6cac9c3ed1aeedd499d78187de2cd7cf)" d="M183.426,369.832l7.711,26.842c1.892-0.76,3.714-1.547,5.509-2.361l-8.464-26.427
	C186.643,368.561,185.048,369.21,183.426,369.832z"/>
<linearGradient id="ian_symbols_505753b080436eb49d464df3860a2d9d" gradientUnits="userSpaceOnUse" x1="216.2109" y1="362.8774" x2="225.2599" y2="360.4528">
	<stop  offset="0.1685" style="stop-color:#747A68"/>
	<stop  offset="0.9045" style="stop-color:#888E7E"/>
</linearGradient>
<path fill="url(#ian_symbols_505753b080436eb49d464df3860a2d9d)" d="M216.287,348.196c-0.973,1.159-1.995,2.292-3.1,3.396l11.177,23.763
	c1.346-1.45,2.568-2.941,3.693-4.46L216.287,348.196z"/>
<linearGradient id="ian_symbols_d15ce1ac5dac0bf41de6284138c6072b" gradientUnits="userSpaceOnUse" x1="221.3413" y1="354.2515" x2="231.284" y2="351.5873">
	<stop  offset="0.0787" style="stop-color:#525A44"/>
	<stop  offset="0.9045" style="stop-color:#888E7E"/>
</linearGradient>
<path fill="url(#ian_symbols_d15ce1ac5dac0bf41de6284138c6072b)" d="M221.914,339.566c-0.856,1.809-1.892,3.59-3.079,5.33l12.302,21.263
	c1.015-1.809,1.878-3.659,2.568-5.536L221.914,339.566z"/>
<linearGradient id="ian_symbols_3a3dbe837d393e242d1343a0ffbcc8da" gradientUnits="userSpaceOnUse" x1="226.0132" y1="344.3374" x2="233.467" y2="342.3401">
	<stop  offset="0.0787" style="stop-color:#525A44"/>
	<stop  offset="0.9045" style="stop-color:#888E7E"/>
</linearGradient>
<path fill="url(#ian_symbols_3a3dbe837d393e242d1343a0ffbcc8da)" d="M224.758,329.845c-0.221,1.837-0.622,3.646-1.174,5.427l11.267,21.525
	c0.477-1.975,0.767-3.977,0.877-6.02L224.758,329.845z"/>
<linearGradient id="ian_symbols_7092722bc3b7bbd42dbeb2334433bc82" gradientUnits="userSpaceOnUse" x1="12.0322" y1="352.3628" x2="28.3412" y2="347.9928">
	<stop  offset="0.0787" style="stop-color:#525A44"/>
	<stop  offset="0.9045" style="stop-color:#888E7E"/>
</linearGradient>
<path fill="url(#ian_symbols_7092722bc3b7bbd42dbeb2334433bc82)" d="M24.351,336.556l-10.853,21.277c0.567,2.043,1.319,4.059,2.265,6.033l10.846-22.34
	C25.711,339.897,24.952,338.241,24.351,336.556z"/>
<linearGradient id="ian_symbols_7864f32686c8f53489125c988cfd8bd7" gradientUnits="userSpaceOnUse" x1="9.9487" y1="342.73" x2="25.1658" y2="338.6526">
	<stop  offset="0.0787" style="stop-color:#525A44"/>
	<stop  offset="0.9045" style="stop-color:#888E7E"/>
</linearGradient>
<path fill="url(#ian_symbols_7864f32686c8f53489125c988cfd8bd7)" d="M22.673,329.348l-9.989,15.906c-0.297,2.444-0.38,3.921-0.38,3.921c0,0.953,0.055,1.906,0.139,2.858
	l10.784-19.344C22.984,331.585,22.79,330.467,22.673,329.348z"/>
<linearGradient id="ian_symbols_158b73bfbbc90d14214c46867ab16924" gradientUnits="userSpaceOnUse" x1="11.4111" y1="329.9868" x2="25.975" y2="326.0844">
	<stop  offset="0.0787" style="stop-color:#525A44"/>
	<stop  offset="0.9045" style="stop-color:#888E7E"/>
</linearGradient>
<path fill="url(#ian_symbols_158b73bfbbc90d14214c46867ab16924)" d="M23.668,317.474l-8.52,14.719c-0.586,2.278-1.056,4.432-1.429,6.406l9.203-16.293
	C23.094,320.954,23.336,319.31,23.668,317.474z"/>
<linearGradient id="ian_symbols_5d1fc1fe8377d994f502fc2b5d560c97" gradientUnits="userSpaceOnUse" x1="214.313" y1="386.5181" x2="230.5366" y2="386.5181">
	<stop  offset="0.0056" style="stop-color:#E4E0E3"/>
	<stop  offset="0.9944" style="stop-color:#C7C3BE"/>
</linearGradient>
<polygon fill="url(#ian_symbols_5d1fc1fe8377d994f502fc2b5d560c97)" stroke="#28666E" stroke-width="0.2503" stroke-linecap="round" stroke-linejoin="round" points="
	214.313,424.578 214.313,344.716 230.537,347.202 230.537,428.32 "/>
<linearGradient id="ian_symbols_ab9ef1ba866bdb6441ec11726c68735b" gradientUnits="userSpaceOnUse" x1="222.7598" y1="353.2114" x2="259.9468" y2="316.0244">
	<stop  offset="0.0056" style="stop-color:#E4E0E3"/>
	<stop  offset="1" style="stop-color:#AAA89B"/>
</linearGradient>
<polygon fill="url(#ian_symbols_ab9ef1ba866bdb6441ec11726c68735b)" stroke="#28666E" stroke-width="0.2503" stroke-linecap="round" stroke-linejoin="round" points="
	252.221,350.722 267.195,323.273 230.488,318.509 214.265,344.716 220.14,345.848 218.524,348.858 234.741,351.343 235.99,348.223 
	"/>
<polygon fill="#00677A" stroke="#28666E" stroke-width="0.2503" stroke-linejoin="round" points="250.633,348.375 263.343,325.082 
	232.2,321.05 218.441,343.28 "/>
<polygon fill="#E4E0E3" stroke="#28666E" stroke-width="0.2503" stroke-linecap="round" stroke-linejoin="round" points="
	218.524,428.72 218.524,348.858 234.741,351.343 234.741,432.462 "/>
<polygon fill="#AAA89B" stroke="#28666E" stroke-width="0.2503" stroke-linejoin="round" points="236.536,426.58 235.99,348.223 
	234.741,351.343 234.741,432.462 "/>
<linearGradient id="ian_symbols_9cb00c6d9c3962541dd2b5307cd4f963" gradientUnits="userSpaceOnUse" x1="235.9902" y1="390.0317" x2="252.2207" y2="390.0317">
	<stop  offset="0.0056" style="stop-color:#E4E0E3"/>
	<stop  offset="0.9944" style="stop-color:#C7C3BE"/>
</linearGradient>
<polygon fill="url(#ian_symbols_9cb00c6d9c3962541dd2b5307cd4f963)" stroke="#28666E" stroke-width="0.2503" stroke-linecap="round" stroke-linejoin="round" points="
	235.99,428.099 235.99,348.223 252.221,350.722 252.221,431.84 "/>
<linearGradient id="ian_symbols_713d566bf1d8a824edb30b269321a352" gradientUnits="userSpaceOnUse" x1="267.1953" y1="377.5562" x2="252.2207" y2="377.5562">
	<stop  offset="0.0056" style="stop-color:#AAA89B"/>
	<stop  offset="1" style="stop-color:#BFBBB4"/>
</linearGradient>
<polygon fill="url(#ian_symbols_713d566bf1d8a824edb30b269321a352)" stroke="#28666E" stroke-width="0.2503" stroke-linejoin="round" points="267.195,403.134 
	267.195,323.273 252.221,350.722 252.221,431.84 "/>
<linearGradient id="ian_symbols_2dbe1cf620d27e24a18650d23f2a8f3b" gradientUnits="userSpaceOnUse" x1="109.9429" y1="444.9507" x2="150.5061" y2="404.3875">
	<stop  offset="0.0056" style="stop-color:#E4E0E3"/>
	<stop  offset="0.4775" style="stop-color:#E4E0E3"/>
	<stop  offset="1" style="stop-color:#BFBBB4"/>
</linearGradient>
<polygon fill="url(#ian_symbols_2dbe1cf620d27e24a18650d23f2a8f3b)" stroke="#28666E" stroke-width="0.2503" stroke-linecap="round" stroke-linejoin="round" points="
	167.354,421.236 127.423,398.151 98.089,414.375 98.089,433.097 139.277,458.046 139.277,439.958 "/>
<polyline fill="#AAA89B" stroke="#28666E" stroke-width="0.2503" stroke-linejoin="round" points="139.277,439.958 167.354,421.236 
	167.354,439.958 139.277,458.046 139.277,439.958 "/>
<polygon fill="#00677A" stroke="#28666E" stroke-width="0.2503" stroke-linejoin="round" points="105.172,414.926 126.595,402.417 
	159.815,421.624 138.869,435.099 "/>
<line fill="none" stroke="#28666E" stroke-width="0.2503" stroke-linejoin="round" x1="98.089" y1="414.375" x2="139.277" y2="439.958"/>
<linearGradient id="ian_symbols_8f58e3dbc529fe44a1c00a25333a4184" gradientUnits="userSpaceOnUse" x1="396.3789" y1="281.4634" x2="271.7113" y2="314.868">
	<stop  offset="0.0787" style="stop-color:#E9E7E2"/>
	<stop  offset="1" style="stop-color:#B6B29E"/>
</linearGradient>
<path fill="url(#ian_symbols_8f58e3dbc529fe44a1c00a25333a4184)" stroke="#525A44" stroke-width="0.2503" stroke-linejoin="round" d="M400.056,298.171
	c0,21.111-29.554,38.232-66.005,38.232c-36.452,0-66.014-17.121-66.014-38.232c0-21.125,29.562-38.246,66.014-38.246
	C370.502,259.925,400.056,277.046,400.056,298.171z"/>
<linearGradient id="ian_symbols_7c46dc4bbf845764bd0ff1fb66ee3fa3" gradientUnits="userSpaceOnUse" x1="263.9502" y1="381.5679" x2="404.1572" y2="381.5679">
	<stop  offset="0" style="stop-color:#E9E7E2"/>
	<stop  offset="0.3371" style="stop-color:#B6B29E"/>
	<stop  offset="0.6742" style="stop-color:#888E7E"/>
	<stop  offset="1" style="stop-color:#9F9F91"/>
</linearGradient>
<path fill="url(#ian_symbols_7c46dc4bbf845764bd0ff1fb66ee3fa3)" stroke="#525A44" stroke-width="0.2503" stroke-linejoin="round" d="M404.157,381.568
	c0,21.691-31.391,39.269-70.106,39.269s-70.101-17.577-70.101-39.269s31.385-39.269,70.101-39.269S404.157,359.876,404.157,381.568z
	"/>
<linearGradient id="ian_symbols_088f33f834aa5a9489ce415da5cca656" gradientUnits="userSpaceOnUse" x1="263.9502" y1="427.4087" x2="404.1572" y2="427.4087">
	<stop  offset="0" style="stop-color:#E9E7E2"/>
	<stop  offset="0.3371" style="stop-color:#B6B29E"/>
	<stop  offset="0.6742" style="stop-color:#888E7E"/>
	<stop  offset="1" style="stop-color:#9F9F91"/>
</linearGradient>
<path fill="url(#ian_symbols_088f33f834aa5a9489ce415da5cca656)" stroke="#525A44" stroke-width="0.2503" stroke-linejoin="round" d="M404.157,433.981
	c0,21.691-31.391,39.268-70.106,39.268s-70.101-17.576-70.101-39.268v-52.413c0,21.691,31.385,39.269,70.101,39.269
	s70.106-17.577,70.106-39.269V433.981z"/>
<linearGradient id="ian_symbols_f920d4a5e7684514090b049fdd7bdb5d" gradientUnits="userSpaceOnUse" x1="268.0371" y1="355.9761" x2="400.0557" y2="355.9761">
	<stop  offset="0" style="stop-color:#E9E7E2"/>
	<stop  offset="0.3371" style="stop-color:#B6B29E"/>
	<stop  offset="0.6742" style="stop-color:#888E7E"/>
	<stop  offset="1" style="stop-color:#9F9F91"/>
</linearGradient>
<path fill="url(#ian_symbols_f920d4a5e7684514090b049fdd7bdb5d)" stroke="#525A44" stroke-width="0.2503" stroke-linejoin="round" d="M400.056,298.171
	c0,21.111-29.554,38.232-66.005,38.232c-36.452,0-66.014-17.121-66.014-38.232v77.377c0,21.11,29.562,38.232,66.014,38.232
	c36.451,0,66.005-17.122,66.005-38.232V298.171z"/>
<linearGradient id="ian_symbols_b7bcc2faf4018a346d3bda51b1ad8b09" gradientUnits="userSpaceOnUse" x1="290.2246" y1="285.4058" x2="379.6114" y2="309.3569">
	<stop  offset="0.2697" style="stop-color:#E9E7E2"/>
	<stop  offset="1" style="stop-color:#9F9F91"/>
</linearGradient>
<path fill="url(#ian_symbols_b7bcc2faf4018a346d3bda51b1ad8b09)" stroke="#525A44" stroke-width="0.2503" stroke-linejoin="round" d="M286.788,299.994
	c0.911,6.365,11.833,26.4,50.072,24.577c34.602-2.733,46.434-17.977,45.522-28.898c-2.733-6.614-20.027-27.546-49.161-27.546
	C300.43,268.126,285.876,293.615,286.788,299.994z"/>
<polygon fill="#E4E0E3" stroke="#28666E" stroke-width="0.2503" stroke-linecap="round" stroke-linejoin="round" points="
	110.571,473.028 110.571,446.2 136.156,459.924 136.156,487.374 "/>
<linearGradient id="ian_symbols_b3a114565447cad4915073ec0224c52a" gradientUnits="userSpaceOnUse" x1="172.3452" y1="463.0386" x2="136.1563" y2="463.0386">
	<stop  offset="0.0056" style="stop-color:#AAA89B"/>
	<stop  offset="1" style="stop-color:#BFBBB4"/>
</linearGradient>
<polygon fill="url(#ian_symbols_b3a114565447cad4915073ec0224c52a)" stroke="#28666E" stroke-width="0.2503" stroke-linejoin="round" points="172.345,465.544 
	172.345,438.704 136.156,459.924 136.156,487.374 "/>
<linearGradient id="ian_symbols_d11f7f9a4bcb2384ad49049ed7430aa8" gradientUnits="userSpaceOnUse" x1="124.124" y1="459.7632" x2="158.7646" y2="425.1227">
	<stop  offset="0.0056" style="stop-color:#E4E0E3"/>
	<stop  offset="1" style="stop-color:#AAA89B"/>
</linearGradient>
<path fill="url(#ian_symbols_d11f7f9a4bcb2384ad49049ed7430aa8)" stroke="#28666E" stroke-width="0.2503" stroke-linecap="round" stroke-linejoin="round" d="
	M145.828,425.599l-33.586,19.565c0,0-1.733,0.843-1.67,1.035c0.062,0.18,1.602,0.856,1.602,0.856s23.597,12.868,23.983,12.868
	c0.379,0,0.566-0.331,0.566-0.331l35.623-20.89L145.828,425.599z"/>
<path fill="#00677A" stroke="#28666E" stroke-width="0.2503" stroke-linejoin="round" d="M145.904,427.975l-29.638,17.148
	c0,0-1.457,0.704-1.408,0.87c0.055,0.151,1.346,0.718,1.346,0.718s19.834,10.811,20.152,10.811s0.476-0.275,0.476-0.275
	l31.343-18.253L145.904,427.975z"/>
<polygon fill="#E4E0E3" stroke="#28666E" stroke-width="0.2503" stroke-linecap="round" stroke-linejoin="round" points="
	133.657,425.295 133.657,438.399 149.57,447.443 149.57,433.401 "/>
<polygon fill="#AAA89B" stroke="#28666E" stroke-width="0.2503" stroke-linejoin="round" points="160.485,428.099 160.485,441.202 
	149.57,447.443 149.57,433.401 "/>
<linearGradient id="ian_symbols_87be33a6538670642de60f1ad9dba1cc" gradientUnits="userSpaceOnUse" x1="141.0659" y1="432.7046" x2="153.0779" y2="420.6926">
	<stop  offset="0.0056" style="stop-color:#E4E0E3"/>
	<stop  offset="1" style="stop-color:#AAA89B"/>
</linearGradient>
<polygon fill="url(#ian_symbols_87be33a6538670642de60f1ad9dba1cc)" stroke="#28666E" stroke-width="0.2503" stroke-linecap="round" stroke-linejoin="round" points="
	160.485,428.099 149.57,433.401 133.657,425.295 144.668,420.642 "/>
<polygon fill="#00677A" stroke="#28666E" stroke-width="0.2503" stroke-linejoin="round" points="157.668,428.155 149.646,432.02 
	137.054,425.627 144.875,422.161 "/>
<linearGradient id="ian_symbols_69baf1a911517e441d2d26ade59279e7" gradientUnits="userSpaceOnUse" x1="408.832" y1="383.4868" x2="418.8135" y2="383.4868">
	<stop  offset="0.0056" style="stop-color:#E4E0E3"/>
	<stop  offset="0.9944" style="stop-color:#C7C3BE"/>
</linearGradient>
<polygon fill="url(#ian_symbols_69baf1a911517e441d2d26ade59279e7)" stroke="#28666E" stroke-width="0.2503" stroke-linecap="round" stroke-linejoin="round" points="
	408.832,333.877 408.832,414.996 418.813,433.097 418.813,351.965 "/>
<linearGradient id="ian_symbols_2f4058bd56063ad4f1d493b716bb3577" gradientUnits="userSpaceOnUse" x1="447.5264" y1="390.978" x2="418.8135" y2="390.978">
	<stop  offset="0.0056" style="stop-color:#AAA89B"/>
	<stop  offset="1" style="stop-color:#BFBBB4"/>
</linearGradient>
<polygon fill="url(#ian_symbols_2f4058bd56063ad4f1d493b716bb3577)" stroke="#28666E" stroke-width="0.2503" stroke-linejoin="round" points="447.526,348.858 
	447.526,429.977 418.813,433.097 418.813,351.965 "/>
<linearGradient id="ian_symbols_b14bd8daae292bc42d756ffefa428a9c" gradientUnits="userSpaceOnUse" x1="418.1982" y1="351.3501" x2="437.2114" y2="332.3369">
	<stop  offset="0.0056" style="stop-color:#E4E0E3"/>
	<stop  offset="1" style="stop-color:#AAA89B"/>
</linearGradient>
<polygon fill="url(#ian_symbols_b14bd8daae292bc42d756ffefa428a9c)" stroke="#28666E" stroke-width="0.2503" stroke-linecap="round" stroke-linejoin="round" points="
	435.935,331.06 408.832,333.877 418.813,351.965 447.526,348.858 "/>
<polygon fill="#00677A" stroke="#28666E" stroke-width="0.2503" stroke-linejoin="round" points="434.423,333.463 412.793,335.949 
	420.236,349.784 443.156,347.188 "/>
<linearGradient id="ian_symbols_877bdffb736d6e94e1e3b4c988aa30a9" gradientUnits="userSpaceOnUse" x1="417.4893" y1="339.3384" x2="422.3145" y2="339.3384">
	<stop  offset="0.0056" style="stop-color:#E4E0E3"/>
	<stop  offset="0.9944" style="stop-color:#C7C3BE"/>
</linearGradient>
<polygon fill="url(#ian_symbols_877bdffb736d6e94e1e3b4c988aa30a9)" stroke="#28666E" stroke-width="0.2503" stroke-linecap="round" stroke-linejoin="round" points="
	417.489,332.248 417.489,337.674 422.314,346.428 422.314,341.001 "/>
<polygon fill="#AAA89B" stroke="#28666E" stroke-width="0.2503" stroke-linejoin="round" points="436.204,339.483 436.204,344.923 
	422.314,346.428 422.314,341.001 "/>
<linearGradient id="ian_symbols_bd8ced41447650843536bcd1c1da71b9" gradientUnits="userSpaceOnUse" x1="422.0127" y1="340.6997" x2="430.835" y2="331.8774">
	<stop  offset="0.0056" style="stop-color:#E4E0E3"/>
	<stop  offset="1" style="stop-color:#AAA89B"/>
</linearGradient>
<polygon fill="url(#ian_symbols_bd8ced41447650843536bcd1c1da71b9)" stroke="#28666E" stroke-width="0.2503" stroke-linecap="round" stroke-linejoin="round" points="
	429.936,330.978 417.489,332.248 422.314,341.001 436.204,339.483 "/>
<polygon fill="#00677A" stroke="#28666E" stroke-width="0.2503" stroke-linejoin="round" points="429.238,332.456 419.47,333.477 
	423.066,339.415 433.415,338.282 "/>
<linearGradient id="ian_symbols_8ab91b5ed820f6a411838e6e1019fcb6" gradientUnits="userSpaceOnUse" x1="-686.4502" y1="324.1606" x2="-681.6191" y2="324.1606" gradientTransform="matrix(-0.9998 -0.0194 -0.0194 0.9998 -429.782 -4.1304)">
	<stop  offset="0.0056" style="stop-color:#E4E0E3"/>
	<stop  offset="0.9944" style="stop-color:#C7C3BE"/>
</linearGradient>
<polygon fill="url(#ian_symbols_8ab91b5ed820f6a411838e6e1019fcb6)" stroke="#28666E" stroke-width="0.2503" stroke-linecap="round" stroke-linejoin="round" points="
	250.378,326.187 250.274,331.626 245.275,340.284 245.38,334.843 "/>
<polygon fill="#AAA89B" stroke="#28666E" stroke-width="0.2503" stroke-linejoin="round" points="231.517,333.063 231.42,338.502 
	245.275,340.284 245.38,334.843 "/>
<linearGradient id="ian_symbols_214ee298d940074411859cdf090b1d5b" gradientUnits="userSpaceOnUse" x1="-681.9194" y1="325.5151" x2="-673.0991" y2="316.6948" gradientTransform="matrix(-0.9998 -0.0194 -0.0194 0.9998 -429.782 -4.1304)">
	<stop  offset="0.0056" style="stop-color:#E4E0E3"/>
	<stop  offset="1" style="stop-color:#AAA89B"/>
</linearGradient>
<polygon fill="url(#ian_symbols_214ee298d940074411859cdf090b1d5b)" stroke="#28666E" stroke-width="0.2503" stroke-linecap="round" stroke-linejoin="round" points="
	237.951,324.681 250.378,326.187 245.38,334.843 231.517,333.063 "/>
<polygon fill="#00677A" stroke="#28666E" stroke-width="0.2503" stroke-linejoin="round" points="238.627,326.172 248.376,327.388 
	244.661,333.242 234.34,331.917 "/>
<polygon fill="#E4E0E3" stroke="#28666E" stroke-width="0.2503" stroke-linecap="round" stroke-linejoin="round" points="
	383.253,473.028 383.253,446.2 408.832,459.924 408.832,487.374 "/>
<linearGradient id="ian_symbols_22cbd0ee0fecae049dc512a400aa6fc6" gradientUnits="userSpaceOnUse" x1="460.0088" y1="459.6069" x2="408.832" y2="459.6069">
	<stop  offset="0.0056" style="stop-color:#AAA89B"/>
	<stop  offset="1" style="stop-color:#BFBBB4"/>
</linearGradient>
<polygon fill="url(#ian_symbols_22cbd0ee0fecae049dc512a400aa6fc6)" stroke="#28666E" stroke-width="0.2503" stroke-linejoin="round" points="460.009,458.668 
	460.009,431.84 408.832,459.924 408.832,487.374 "/>
<linearGradient id="ian_symbols_90f41f3154d9e90441526134004d75c7" gradientUnits="userSpaceOnUse" x1="418.8135" y1="417.1841" x2="430.0527" y2="417.1841">
	<stop  offset="0.1011" style="stop-color:#D6D2D1"/>
	<stop  offset="0.9944" style="stop-color:#C7C3BE"/>
</linearGradient>
<polygon fill="url(#ian_symbols_90f41f3154d9e90441526134004d75c7)" stroke="#28666E" stroke-width="0.2503" stroke-linecap="round" stroke-linejoin="round" points="
	418.813,404.391 418.813,429.977 430.053,422.479 "/>
<linearGradient id="ian_symbols_60a59e18eaa48c64391a29a48bdbcd12" gradientUnits="userSpaceOnUse" x1="397.4082" y1="460.3647" x2="452.6387" y2="405.1342">
	<stop  offset="0.0056" style="stop-color:#E4E0E3"/>
	<stop  offset="1" style="stop-color:#AAA89B"/>
</linearGradient>
<path fill="url(#ian_symbols_60a59e18eaa48c64391a29a48bdbcd12)" stroke="#28666E" stroke-width="0.2503" stroke-linecap="round" stroke-linejoin="round" d="
	M447.45,399.946l-28.603,4.9l6.842,18.255l-40.767,22.063c0,0-1.739,0.843-1.67,1.035c0.069,0.18,1.603,0.856,1.603,0.856
	s23.603,12.868,23.977,12.868c0.386,0,0.565-0.331,0.565-0.331l50.611-27.753L447.45,399.946z"/>
<polygon fill="#00677A" stroke="#28666E" stroke-width="0.2503" stroke-linejoin="round" points="388.548,445.648 408.832,456.487 
	456.577,430.281 445.649,403.134 422.018,407.416 428.155,423.667 "/>
</svg>
